<svg width="49" height="41" viewBox="0 0 49 41" fill="none" xmlns="http://www.w3.org/2000/svg">
<path fill-rule="evenodd" clip-rule="evenodd" d="M25.5 38.9377C38.4787 38.9377 49 30.4312 49 19.9377C49 9.44433 38.4787 0.937744 25.5 0.937744C12.5213 0.937744 2 9.44433 2 19.9377C2 23.375 3.12894 26.5991 5.10338 29.3809C4.9989 33.1109 3.80978 37.3979 0 39.9377C2.66624 40.271 9.39785 40.1378 14.9973 36.9393C18.158 38.2181 21.7251 38.9377 25.5 38.9377Z" fill="url(#paint0_linear_132_282)"/>
<path d="M11.7759 11.514C13.4253 11.514 15.2033 11.8568 16.2315 12.5851V16.2695C15.2461 15.6268 13.9609 14.9199 11.733 14.9199C9.29099 14.9199 7.42743 16.7835 7.42743 19.2255C7.42743 21.6247 9.31251 23.5098 11.733 23.5098C13.9394 23.5098 15.2247 22.8458 16.2315 22.246V25.8661C15.2033 26.5944 13.4467 26.9157 11.7759 26.9157C7.51311 26.9157 4 23.4456 4 19.2255C4 14.9843 7.49169 11.514 11.7759 11.514Z" fill="white"/>
<path d="M21.9081 11.7282V23.5742H26.8565V26.723H18.6308V11.7282H21.9081Z" fill="white"/>
<path d="M30.3268 11C31.2908 11 32.1048 11.7926 32.1048 12.7566C32.1048 13.7205 31.2908 14.5345 30.3268 14.5345C29.3628 14.5345 28.5703 13.7205 28.5703 12.7566C28.5703 11.7926 29.3628 11 30.3268 11ZM28.8059 16.4195H31.8477V26.7231H28.8059V16.4195Z" fill="white"/>
<path d="M41.573 11.514C43.2224 11.514 45.0004 11.8568 46.0286 12.5851V16.2695C45.0432 15.6268 43.7579 14.9199 41.5301 14.9199C39.0881 14.9199 37.2245 16.7835 37.2245 19.2255C37.2245 21.6247 39.1096 23.5098 41.5301 23.5098C43.7365 23.5098 45.0218 22.8458 46.0286 22.246V25.8661C45.0004 26.5944 43.2438 26.9157 41.573 26.9157C37.3102 26.9157 33.7971 23.4456 33.7971 19.2255C33.7971 14.9843 37.2888 11.514 41.573 11.514Z" fill="white"/>
<path d="M30.3199 10.8028C31.3563 10.8028 32.2315 11.6549 32.2315 12.6913C32.2315 13.7276 31.3563 14.6028 30.3199 14.6028C29.2835 14.6028 28.4315 13.7276 28.4315 12.6913C28.4315 11.6549 29.2835 10.8028 30.3199 10.8028Z" fill="#FF482F"/>
<defs>
<linearGradient id="paint0_linear_132_282" x1="42.5" y1="17.5" x2="-22" y2="51.5" gradientUnits="userSpaceOnUse">
<stop stop-color="#46157E"/>
<stop offset="0.914202" stop-color="#34B4D1"/>
</linearGradient>
</defs>
</svg>
